REM DIRINDEX 1\8,1\2\11,1\3\12,1\3\14,1\5\15,1\5\16,1\6\17,1\6\18,1\4\19,1\4\20,1\4\21,1\4\22,1\7\23,1\7\24,1\7\25,1\2\9\26,1\2\9\27,1\2\10\28,1\2\10\29,1\2\10\30,1\2\10\31,1\2\10\32,1\3\13\33,1\3\13\34,1\3\13\35
REM DIRNAME cjc123,folder01,folder02,folder03,folder04,folder05,folder06,folder07,folder08,folder09,folder10,folder11,folder12,folder13,folder14,folder15,folder16,folder17,folder18,folder19,folder20,folder21,folder22,folder23,folder24,folder25,folder26,folder27,folder28,folder29,folder30,folder31,folder32,folder33,folder34
TITLE ""
FILE "101 101_UNIT4_SET6.mp3" MP3
  TRACK 01 AUDIO
    TITLE "14:cjc123_1639"
    INDEX 01 00:00:00
  TRACK 02 AUDIO
    TITLE "0:"
    INDEX 01 00:02:67
  TRACK 03 AUDIO
    TITLE "33:cjc123_1640"
    INDEX 01 00:03:33
  TRACK 04 AUDIO
    TITLE "0:"
    INDEX 01 00:04:44
  TRACK 05 AUDIO
    TITLE "34:cjc123_1641"
    INDEX 01 00:04:62
  TRACK 06 AUDIO
    TITLE "0:"
    INDEX 01 00:06:02
  TRACK 07 AUDIO
    TITLE "35:cjc123_1642"
    INDEX 01 00:06:51
  TRACK 08 AUDIO
    TITLE "0:"
    INDEX 01 00:11:48
  TRACK 09 AUDIO
    TITLE "33:cjc123_1643"
    INDEX 01 00:12:26
  TRACK 10 AUDIO
    TITLE "0:"
    INDEX 01 00:13:26
  TRACK 11 AUDIO
    TITLE "34:cjc123_1644"
    INDEX 01 00:13:57
  TRACK 12 AUDIO
    TITLE "0:"
    INDEX 01 00:14:68
  TRACK 13 AUDIO
    TITLE "35:cjc123_1645"
    INDEX 01 00:15:38
  TRACK 14 AUDIO
    TITLE "0:"
    INDEX 01 00:19:05
  TRACK 15 AUDIO
    TITLE "33:cjc123_1646"
    INDEX 01 00:19:62
  TRACK 16 AUDIO
    TITLE "0:"
    INDEX 01 00:21:02
  TRACK 17 AUDIO
    TITLE "34:cjc123_1647"
    INDEX 01 00:21:29
  TRACK 18 AUDIO
    TITLE "0:"
    INDEX 01 00:22:38
  TRACK 19 AUDIO
    TITLE "35:cjc123_1648"
    INDEX 01 00:23:12
  TRACK 20 AUDIO
    TITLE "0:"
    INDEX 01 00:26:54
  TRACK 21 AUDIO
    TITLE "33:cjc123_1649"
    INDEX 01 00:27:32
  TRACK 22 AUDIO
    TITLE "0:"
    INDEX 01 00:28:64
  TRACK 23 AUDIO
    TITLE "34:cjc123_1650"
    INDEX 01 00:29:07
  TRACK 24 AUDIO
    TITLE "0:"
    INDEX 01 00:30:34
  TRACK 25 AUDIO
    TITLE "35:cjc123_1651"
    INDEX 01 00:31:08
  TRACK 26 AUDIO
    TITLE "0:"
    INDEX 01 00:37:03
  TRACK 27 AUDIO
    TITLE "33:cjc123_1652"
    INDEX 01 00:37:54
  TRACK 28 AUDIO
    TITLE "0:"
    INDEX 01 00:38:63
  TRACK 29 AUDIO
    TITLE "34:cjc123_1653"
    INDEX 01 00:39:17
  TRACK 30 AUDIO
    TITLE "0:"
    INDEX 01 00:40:09
  TRACK 31 AUDIO
    TITLE "35:cjc123_1654"
    INDEX 01 00:40:64
  TRACK 32 AUDIO
    TITLE "0:"
    INDEX 01 00:44:46
  TRACK 33 AUDIO
    TITLE "33:cjc123_1655"
    INDEX 01 00:45:28
  TRACK 34 AUDIO
    TITLE "0:"
    INDEX 01 00:46:74
  TRACK 35 AUDIO
    TITLE "34:cjc123_1656"
    INDEX 01 00:47:38
  TRACK 36 AUDIO
    TITLE "0:"
    INDEX 01 00:49:16
  TRACK 37 AUDIO
    TITLE "35:cjc123_1657"
    INDEX 01 00:49:69
  TRACK 38 AUDIO
    TITLE "0:"
    INDEX 01 00:54:21
  TRACK 39 AUDIO
    TITLE "33:cjc123_1658"
    INDEX 01 00:55:03
  TRACK 40 AUDIO
    TITLE "0:"
    INDEX 01 00:56:20
  TRACK 41 AUDIO
    TITLE "34:cjc123_1659"
    INDEX 01 00:56:35
  TRACK 42 AUDIO
    TITLE "0:"
    INDEX 01 00:57:50
  TRACK 43 AUDIO
    TITLE "35:cjc123_1660"
    INDEX 01 00:58:22
  TRACK 44 AUDIO
    TITLE "0:"
    INDEX 01 01:02:61
  TRACK 45 AUDIO
    TITLE "33:cjc123_1661"
    INDEX 01 01:03:41
  TRACK 46 AUDIO
    TITLE "0:"
    INDEX 01 01:04:50
  TRACK 47 AUDIO
    TITLE "34:cjc123_1662"
    INDEX 01 01:04:74
  TRACK 48 AUDIO
    TITLE "0:"
    INDEX 01 01:06:00
  TRACK 49 AUDIO
    TITLE "35:cjc123_1663"
    INDEX 01 01:06:51
  TRACK 50 AUDIO
    TITLE "0:"
    INDEX 01 01:10:61
  TRACK 51 AUDIO
    TITLE "33:cjc123_1664"
    INDEX 01 01:11:37
  TRACK 52 AUDIO
    TITLE "0:"
    INDEX 01 01:12:50
  TRACK 53 AUDIO
    TITLE "34:cjc123_1665"
    INDEX 01 01:12:66
  TRACK 54 AUDIO
    TITLE "0:"
    INDEX 01 01:14:06
  TRACK 55 AUDIO
    TITLE "35:cjc123_1666"
    INDEX 01 01:14:59
  TRACK 56 AUDIO
    TITLE "0:"
    INDEX 01 01:20:71
  TRACK 57 AUDIO
    TITLE "33:cjc123_1667"
    INDEX 01 01:21:47
  TRACK 58 AUDIO
    TITLE "0:"
    INDEX 01 01:23:01
  TRACK 59 AUDIO
    TITLE "34:cjc123_1668"
    INDEX 01 01:23:26
  TRACK 60 AUDIO
    TITLE "0:"
    INDEX 01 01:24:49
  TRACK 61 AUDIO
    TITLE "35:cjc123_1669"
    INDEX 01 01:25:23
  TRACK 62 AUDIO
    TITLE "0:"
    INDEX 01 01:30:44
  TRACK 63 AUDIO
    TITLE "33:cjc123_1670"
    INDEX 01 01:31:28
  TRACK 64 AUDIO
    TITLE "0:"
    INDEX 01 01:32:55
  TRACK 65 AUDIO
    TITLE "34:cjc123_1671"
    INDEX 01 01:33:09
  TRACK 66 AUDIO
    TITLE "0:"
    INDEX 01 01:34:34
  TRACK 67 AUDIO
    TITLE "35:cjc123_1672"
    INDEX 01 01:35:12
  TRACK 68 AUDIO
    TITLE "0:"
    INDEX 01 01:41:65
  TRACK 69 AUDIO
    TITLE "33:cjc123_1673"
    INDEX 01 01:42:45
  TRACK 70 AUDIO
    TITLE "0:"
    INDEX 01 01:43:74
  TRACK 71 AUDIO
    TITLE "34:cjc123_1674"
    INDEX 01 01:44:30
  TRACK 72 AUDIO
    TITLE "0:"
    INDEX 01 01:45:59
  TRACK 73 AUDIO
    TITLE "35:cjc123_1675"
    INDEX 01 01:46:33
  TRACK 74 AUDIO
    TITLE "0:"
    INDEX 01 01:52:32
  TRACK 75 AUDIO
    TITLE "33:cjc123_1676"
    INDEX 01 01:53:08
  TRACK 76 AUDIO
    TITLE "0:"
    INDEX 01 01:54:23
  TRACK 77 AUDIO
    TITLE "34:cjc123_1677"
    INDEX 01 01:54:44
  TRACK 78 AUDIO
    TITLE "0:"
    INDEX 01 01:55:50
  TRACK 79 AUDIO
    TITLE "35:cjc123_1678"
    INDEX 01 01:56:32
  TRACK 80 AUDIO
    TITLE "0:"
    INDEX 01 02:00:25
  TRACK 81 AUDIO
    TITLE "33:cjc123_1679"
    INDEX 01 02:01:09
  TRACK 82 AUDIO
    TITLE "0:"
    INDEX 01 02:02:24
  TRACK 83 AUDIO
    TITLE "34:cjc123_1680"
    INDEX 01 02:02:42
  TRACK 84 AUDIO
    TITLE "0:"
    INDEX 01 02:03:53
  TRACK 85 AUDIO
    TITLE "35:cjc123_1681"
    INDEX 01 02:04:41
  TRACK 86 AUDIO
    TITLE "0:"
    INDEX 01 02:10:28
  TRACK 87 AUDIO
    TITLE "33:cjc123_1682"
    INDEX 01 02:11:10
  TRACK 88 AUDIO
    TITLE "0:"
    INDEX 01 02:12:33
  TRACK 89 AUDIO
    TITLE "34:cjc123_1683"
    INDEX 01 02:12:62
  TRACK 90 AUDIO
    TITLE "0:"
    INDEX 01 02:14:08
  TRACK 91 AUDIO
    TITLE "35:cjc123_1684"
    INDEX 01 02:14:59
  TRACK 92 AUDIO
    TITLE "0:"
    INDEX 01 02:18:65
